<svg width="320" height="379" viewBox="0 0 320 379" fill="none" xmlns="http://www.w3.org/2000/svg">
<path d="M268.835 97.6368C297.581 123.557 308.187 174.084 297.273 218.77C286.283 263.456 253.841 302.31 209.493 328.213C165.144 354.054 108.97 367.054 71.4556 346.751C33.9412 326.447 15.277 272.991 5.82023 220.541C-3.55626 168.087 -3.70831 116.711 21.2703 91.6353C46.2489 66.6445 96.2991 67.8744 144.782 69.1043C193.282 70.4102 240.165 71.7204 268.835 97.6368Z" fill="#F1F1F1"/>
<path d="M245.343 362.038H236.017V368.267H245.343V362.038Z" fill="#E49D75"/>
<path d="M291.344 350.524L284.536 356.026L289.409 362.063L296.217 356.56L291.344 350.524Z" fill="#E49D75"/>
<path d="M251.547 107.628H251.121C249.201 107.628 247.645 109.185 247.645 111.107V112.894C247.645 114.815 249.201 116.373 251.121 116.373H251.547C253.467 116.373 255.023 114.815 255.023 112.894V111.107C255.023 109.185 253.467 107.628 251.547 107.628Z" fill="#E49D75"/>
<path d="M254.432 239.091C255.699 241.999 265.414 300.349 266.841 305.868C268.269 311.388 291.106 347.372 292.66 349.523C293.138 352.634 286.084 357.896 282.739 357.896C279.394 355.25 240.325 298.603 239.388 296.089C238.45 293.574 235.303 233.394 254.432 239.091Z" fill="#5FC5D1"/>
<path d="M213.645 229.425C213.201 231.834 219.803 286.904 220.622 294.301C221.441 301.697 234.091 361.281 235.21 362.769C236.33 364.256 244.845 363.935 246.314 363.191C247.784 362.447 243.442 301.063 243.442 296.613C243.442 292.162 254.846 251.115 253.381 239.226C251.915 227.337 213.645 229.425 213.645 229.425Z" fill="#6BD5E1"/>
<path d="M246.014 162.669H237.098V178.197H246.014V162.669Z" fill="#E49D75"/>
<path d="M190.959 57.5366H49.5813C44.3515 57.5366 40.1119 61.779 40.1119 67.0123V208.483C40.1119 213.716 44.3515 217.959 49.5813 217.959H190.959C196.189 217.959 200.429 213.716 200.429 208.483V67.0123C200.429 61.779 196.189 57.5366 190.959 57.5366Z" fill="#E0E0E0"/>
<path d="M130.291 130.633C132.491 128.613 134.029 125.975 134.706 123.065C135.382 120.156 135.165 117.109 134.081 114.325C132.998 111.542 131.1 109.15 128.636 107.464C126.172 105.777 123.256 104.875 120.27 104.875C117.285 104.875 114.369 105.777 111.905 107.464C109.44 109.15 107.542 111.542 106.459 114.325C105.376 117.109 105.159 120.156 105.835 123.065C106.511 125.975 108.05 128.613 110.25 130.633L98.8333 176.958H141.695L130.291 130.633Z" fill="#A4A4A4"/>
<path d="M68.8032 57.5366C68.9261 43.9585 74.4027 30.9783 84.0413 21.4203C93.6799 11.8624 106.701 6.5 120.27 6.5C133.84 6.5 146.861 11.8624 156.499 21.4203C166.138 30.9783 171.615 43.9585 171.738 57.5366" stroke="#E0E0E0" stroke-width="13" stroke-linecap="round" stroke-linejoin="round"/>
<path d="M240.406 165.222C247.17 165.222 252.654 157.842 252.654 148.739C252.654 139.635 247.17 132.255 240.406 132.255C233.641 132.255 228.157 139.635 228.157 148.739C228.157 157.842 233.641 165.222 240.406 165.222Z" fill="#E49D75"/>
<path d="M238.737 174.997C223.887 174.997 210.65 216.222 213.193 229.903C213.944 233.943 249.482 242.096 254.914 240.955C256.844 238.326 264.721 174.997 238.737 174.997Z" fill="#FFD98E"/>
<path d="M234.927 197.959C241.575 193.133 230.949 169.744 228.465 169.342C223.891 168.603 212.517 177.372 212.876 181.058C213.066 183.002 228.157 202.875 234.927 197.959Z" fill="#FFE4AD"/>
<path d="M214.983 179.321C213.193 177.17 208.716 166.642 208.226 164.144C207.736 161.646 206.536 124.103 206.536 121.88C206.536 119.657 203.58 114.048 203.58 110.701C203.58 107.353 206.984 102.814 208.716 102.755C210.565 104.07 213.133 111.779 213.252 113.744C213.898 109.517 216.956 108.545 217.792 108.545C218.628 108.545 218.519 115.075 215.055 119.471C215.178 122.7 219.279 154.681 219.942 156.532C220.605 158.383 228.157 170.517 228.14 171.591C228.123 172.664 214.983 179.321 214.983 179.321Z" fill="#E49D75"/>
<path d="M306.308 119.565L156.447 99.0765L155.862 103.36L305.723 123.849L306.308 119.565Z" fill="#A4A4A4"/>
<path d="M165.026 104.611L155.861 103.359L154.167 115.766L163.332 117.019L165.026 104.611Z" fill="#A4A4A4"/>
<path d="M173.853 105.82L168.923 105.146L167.229 117.554L172.159 118.228L173.853 105.82Z" fill="#A4A4A4"/>
<path d="M255.421 140.438C255.07 138.435 254.753 123.917 255.294 121.867C255.834 119.817 257.296 118.321 257.951 115.261C258.174 114.209 257.82 110.566 257.106 110.413C255.568 110.084 255.48 111.808 255.277 113.076C254.491 117.4 252.891 116.609 252.151 116.508C251.412 116.406 248.874 115.967 248.042 115.946C247.21 115.925 249.33 117.636 248.684 120.371C248.177 122.522 245.795 136.854 245.305 139.2C247.083 139.271 255.421 140.438 255.421 140.438Z" fill="#E49D75"/>
<path d="M182.266 106.966L177.336 106.292L175.642 118.7L180.572 119.374L182.266 106.966Z" fill="#A4A4A4"/>
<path d="M182.263 106.97L155.861 103.36L155.261 107.757L181.663 111.367L182.263 106.97Z" fill="#A4A4A4"/>
<path d="M310.307 110.887C308.111 110.587 305.875 110.946 303.883 111.918C301.891 112.889 300.231 114.43 299.114 116.345C297.996 118.261 297.471 120.464 297.605 122.678C297.739 124.892 298.525 127.016 299.865 128.783C301.205 130.549 303.038 131.879 305.133 132.603C307.228 133.327 309.49 133.414 311.634 132.852C313.778 132.29 315.708 131.105 317.179 129.446C318.65 127.787 319.596 125.729 319.899 123.532C320.1 122.071 320.011 120.585 319.638 119.159C319.264 117.733 318.614 116.394 317.723 115.219C316.832 114.045 315.718 113.058 314.446 112.314C313.173 111.571 311.767 111.086 310.307 110.887ZM316.351 123.033C316.146 124.53 315.503 125.932 314.502 127.063C313.501 128.194 312.187 129.002 310.727 129.386C309.267 129.769 307.726 129.711 306.299 129.218C304.872 128.725 303.623 127.82 302.71 126.617C301.797 125.414 301.262 123.967 301.171 122.459C301.08 120.951 301.438 119.45 302.199 118.146C302.961 116.842 304.092 115.793 305.449 115.132C306.807 114.471 308.33 114.228 309.825 114.433C311.83 114.708 313.644 115.768 314.868 117.381C316.091 118.994 316.625 121.027 316.351 123.033Z" fill="#A4A4A4"/>
<path d="M215.102 119.437C214.544 117.252 213.459 115.341 213.281 113.697V113.748C213.163 111.778 210.595 104.069 208.745 102.759C207.013 102.818 203.609 107.358 203.609 110.705C203.609 113.16 205.214 116.833 206.067 119.492H215.085L215.102 119.437Z" fill="#E49D75"/>
<path d="M229.369 138.413C229.369 144.115 233.39 147.631 239.764 149.592C239.764 157.394 240.967 157.737 240.967 162.487C240.967 172.723 239.223 167.605 239.223 185.28C239.223 195.939 243.683 201.738 251.894 201.738C261.824 201.738 267.521 191.227 267.521 185.563C267.521 178.378 260.417 165.894 259.919 155.526C259.23 141.579 254.897 129.91 244.029 129.91C234.746 129.91 229.369 133.367 229.369 138.413Z" fill="black"/>
<path d="M240.393 154.224C242.212 154.224 243.687 152.749 243.687 150.928C243.687 149.107 242.212 147.631 240.393 147.631C238.573 147.631 237.098 149.107 237.098 150.928C237.098 152.749 238.573 154.224 240.393 154.224Z" fill="#E49D75"/>
<path fill-rule="evenodd" clip-rule="evenodd" d="M296.2 355.347L301.479 362.557L290.435 378.195L280.011 378.263L280.146 372.975L284.331 371.124L288.052 361.936L296.2 355.347Z" fill="black"/>
<path d="M245.968 367.747V378.275H215.043V373.614L235.447 367.747H245.968Z" fill="black"/>
</svg>
